<?xml version="1.0" standalone="no"?>
<!DOCTYPE svg PUBLIC "-//W3C//DTD SVG 20010904//EN"
 "http://www.w3.org/TR/2001/REC-SVG-20010904/DTD/svg10.dtd">
<svg version="1.0" xmlns="http://www.w3.org/2000/svg"
 width="366.000000pt" height="366.000000pt" viewBox="0 0 366.000000 366.000000"
 preserveAspectRatio="xMidYMid meet">
<metadata>
Created by potrace 1.11, written by Peter Selinger 2001-2013
</metadata>
<g transform="translate(0.000000,366.000000) scale(0.100000,-0.100000)"
fill="#000000" stroke="none">
<path d="M1678 3655 c-1 -1 -32 -6 -68 -9 -173 -18 -409 -87 -577 -170 -530
-260 -892 -737 -1004 -1319 -30 -160 -32 -500 -4 -632 3 -11 7 -31 9 -45 22
-132 95 -341 171 -488 283 -545 810 -909 1420 -980 81 -9 356 -8 430 2 33 4
89 14 125 21 37 8 77 16 90 19 208 42 556 216 718 359 134 118 195 180 264
268 23 30 45 56 48 59 46 44 178 285 234 427 37 92 90 284 100 358 3 22 10 69
15 105 10 71 7 355 -4 435 -62 450 -275 847 -616 1144 -98 85 -100 87 -192
148 -218 145 -486 245 -767 288 -46 7 -385 16 -392 10z"/>
</g>
</svg>
