<svg width="168" height="86" viewBox="0 0 168 86" fill="none" xmlns="http://www.w3.org/2000/svg">
<g style="mix-blend-mode:multiply" opacity="0.5">
<rect width="168" height="86" fill="white"/>
<mask id="mask0" mask-type="alpha" maskUnits="userSpaceOnUse" x="0" y="0" width="168" height="86">
<rect width="168" height="86" fill="white"/>
</mask>
<g mask="url(#mask0)">
<path d="M97.1972 31.88C97.117 38.68 91.5413 44.2 84.682 44.12C77.8227 44.04 72.3272 38.48 72.3673 31.64C72.4475 24.8 78.0232 19.32 84.8825 19.4C91.782 19.44 97.2775 25.04 97.1972 31.88Z" fill="#2B2B2B"/>
<path fill-rule="evenodd" clip-rule="evenodd" d="M84.7622 36.88V35.04H80.5503V32.8H84.3209V31H80.5503V28.88H84.6819V27.04H78.6249V36.88H84.7622ZM91.8622 36.88V35.04H88.0915V27.04H86.126V36.88H91.8622Z" fill="white"/>
<path fill-rule="evenodd" clip-rule="evenodd" d="M66.1898 26.48C62.2588 22.2 54.0356 19.4 45.3311 19.4C43.7266 19.4 42.0819 19.48 40.4774 19.68C29.687 21 20.7017 25.68 15.8881 32.52C13.361 36 12.7192 39.96 14.1232 43.24C15.2864 45.92 18.3751 49.28 26.4379 50.24C26.7989 50.28 27.3604 50.24 27.6412 49.6L28.965 46.84C29.0452 46.68 29.0452 46.48 28.9249 46.32C28.8446 46.16 28.6842 46.04 28.4836 46.04C21.5842 45.44 19.1774 43.12 18.335 41.28C17.4927 39.44 17.9339 37.2 19.5384 34.96C23.5497 29.28 31.2514 25.4 40.6379 24.32C41.9616 24.16 43.3254 24.08 44.6893 24.08C52.0299 24.08 59.2904 26.44 62.3791 29.8C63.422 30.92 63.8633 32.04 63.7831 33.16C63.3418 38.12 52.8322 42.36 44.4887 42.36H43.887L47.6175 34.24C47.7379 34 47.6977 33.68 47.4571 33.52L44.8096 31.52C44.6893 31.4 44.4887 31.36 44.2881 31.4C40.7983 32.16 35.7441 33.32 33.4175 36.84C32.535 38.2 32.3345 39.8 32.8559 41.36C33.4977 43.28 35.2627 44.88 37.6294 45.76L29.2859 64.08C29.1655 64.32 29.2056 64.64 29.4463 64.8L31.9333 66.72C32.0537 66.8 32.174 66.84 32.2943 66.84C32.3345 66.84 32.4147 66.84 32.4548 66.8C32.6554 66.76 32.8158 66.6 32.896 66.44L41.8814 46.76C42.804 46.88 43.7667 46.92 44.7695 46.92C49.8638 46.92 55.6 45.56 60.0927 43.28C65.2672 40.64 68.2757 37.04 68.6367 33.12C68.9175 30.76 68.035 28.48 66.1898 26.48ZM104.779 42.12C104.779 44.16 103.134 45.76 101.128 45.76C99.0825 45.76 97.478 44.12 97.478 42.12C97.478 40.08 99.1226 38.48 101.128 38.48C103.134 38.48 104.779 40.12 104.779 42.12ZM39.5548 41.6L41.9215 36.36C40.4373 36.72 38.0706 37.68 37.509 38.84C37.3085 39.12 37.3085 39.4 37.3887 39.68C37.6695 40.48 38.5921 41.2 39.5548 41.6Z" fill="#2B2B2B"/>
<path d="M154.679 55.48L151.59 53.44C151.47 53.36 151.27 53.32 151.109 53.4C146.576 55.04 141.923 57.8 138.433 60.08C140.92 53.36 141.843 50.8 142.164 49.96C142.244 49.76 142.204 49.48 142.003 49.32L139.557 47.48C139.396 47.36 139.196 47.32 139.035 47.4C134.181 49.32 130.651 51.76 127.763 54.36L129.087 50.72C129.167 50.52 129.087 50.24 128.927 50.12L126.44 48.24C126.239 48.08 125.918 48.12 125.758 48.32C124.073 50.08 122.308 51.12 120.503 51.36C120.262 50.68 119.861 50.08 119.34 49.56C118.297 48.56 116.853 47.8 113.323 48.4C113.122 48.44 113.002 48.56 112.922 48.72C112.44 50 112.039 51.08 111.838 51.64C111.758 51.88 111.798 52.12 111.919 52.32C112.681 53.32 114.366 54.36 116.451 54.88C114.927 58.88 110.354 63.2 106.864 62.56C106.383 62.48 105.541 61.88 105.22 60.88C104.939 59.92 104.859 57.24 109.833 52.32C109.953 52.2 109.993 52.08 109.993 51.92C109.993 51.76 109.913 51.64 109.793 51.52L107.426 49.72C107.225 49.56 106.945 49.6 106.744 49.76L97.3176 58.28L100.286 50.32C100.366 50.08 100.286 49.84 100.085 49.72L97.6786 47.92C97.478 47.8 97.2373 47.8 97.0368 47.92L87.0486 56C86.6876 55.6 86.3266 55.24 86.0057 54.92C85.1633 54.12 84.4012 53.36 84.4012 52.68C84.4012 52.32 84.6017 51.48 85.8854 50.12C85.9656 50 86.0458 49.88 86.0057 49.72C86.0057 49.56 85.9255 49.44 85.8051 49.36L83.3984 47.52C83.1978 47.36 82.917 47.4 82.7565 47.56C78.8255 50.92 75.8571 53.44 73.6509 55.32L73.5306 55.2C71.7255 53.52 70.9232 52.8 73.2899 50C73.3701 49.88 73.4102 49.76 73.4102 49.6C73.4102 49.44 73.33 49.32 73.2097 49.24L70.843 47.44C70.6424 47.28 70.3616 47.32 70.1611 47.48L57.8063 59.72L59.0498 56.52C59.1701 56.28 59.0899 56.04 58.8893 55.88L56.2419 53.92C56.1215 53.84 56.0012 53.8 55.8407 53.8C55.6803 53.84 55.5599 53.92 55.4797 54C50.3854 61.24 47.2565 62.8 45.0904 62.8C41.1995 62.8 43.8068 57.8 46.4142 55.44C48.2193 53.8 53.0729 50.12 59.8119 53.04C60.0927 53.16 60.3735 53.04 60.4938 52.8L61.7373 50.16C61.8176 50.04 61.8176 49.88 61.7373 49.76C61.6972 49.64 61.5769 49.52 61.4565 49.48C55.239 46.76 48.6605 48.04 43.6865 52.56C40.0362 55.92 38.3515 60.24 39.4746 63.32C40.2368 65.4 42.2023 66.76 44.8899 66.76C46.7752 66.76 49.6633 66.24 53.4741 62.64L53.2334 63.88C53.1933 64.08 53.2735 64.28 53.4339 64.4C53.5944 64.52 55.239 65.76 56.0012 66.32C56.2017 66.48 56.4825 66.44 56.6831 66.28L68.1955 54.88C68.7571 56.16 69.7198 57.12 70.5221 57.88C69.3989 58.84 68.5967 59.56 67.995 60.08C66.1899 61.64 65.1068 62.48 63.5424 63.72C63.382 63.84 63.2616 64.2 63.5424 64.4C63.5424 64.4 65.6684 66 66.3904 66.52C66.6712 66.72 66.7916 66.84 67.2328 66.8C70.121 66.56 73.7712 64.88 75.456 61.56C76.0577 60.4 76.0978 59.36 75.8571 58.48C77.1808 57.36 78.7452 56 80.6707 54.36C81.1921 55.76 82.2752 56.84 83.1577 57.72C83.4786 58 83.7193 58.28 83.8797 58.48C83.8797 58.48 78.3842 63 76.7797 64.24C76.6193 64.36 76.4989 64.72 76.7797 64.92C76.7797 64.92 77.9831 65.96 78.7051 66.48C78.9859 66.68 79.1063 66.8 79.5475 66.76C82.8769 66.48 87.2492 64.24 88.4125 59.84H88.4526L94.1085 55.24L90.9396 63.8C90.8594 64 90.9396 64.28 91.1 64.4L93.3865 66.12C93.5871 66.28 93.8678 66.24 94.0684 66.08L101.048 59.8C101.048 60.52 101.128 61.4 101.289 61.92C102.091 64.56 104.297 66.04 105.982 66.36C110.956 67.32 118.257 62.52 120.342 55.28C121.385 55.2 122.388 54.96 123.391 54.6L120.142 63.48C120.062 63.68 120.142 63.96 120.342 64.08L122.829 65.92C122.95 66 123.11 66.04 123.271 66C123.431 65.96 123.551 65.88 123.632 65.72C124.675 63.8 128.566 57.2 136.909 52.68C135.465 56.52 134.583 58.92 132.697 64.16C132.617 64.4 132.697 64.64 132.898 64.76L135.505 66.48C135.706 66.6 135.946 66.6 136.107 66.48C138.273 64.84 147.298 58.36 154.519 56.4C154.719 56.36 154.88 56.2 154.88 55.96C154.96 55.8 154.88 55.6 154.679 55.48Z" fill="#2B2B2B"/>
</g>
</g>
</svg>
