<svg width="168" height="86" viewBox="0 0 168 86" fill="none" xmlns="http://www.w3.org/2000/svg">
<g opacity="0.5">
<path fill-rule="evenodd" clip-rule="evenodd" d="M13.9913 23.1799C12.0947 23.8479 10.4801 24.7729 9.01918 25.8006C6.04614 27.9332 3.68821 30.6053 2.07354 34.0226C1.27902 35.6926 0.587024 37.7224 0.253839 39.8036C-0.104977 42.0646 -0.0793479 44.5312 0.305097 46.8179C0.997098 50.9803 2.86806 54.526 5.17473 57.0954C8.60911 60.9494 13.5813 64.1611 20.6294 64.3666C23.0899 64.4437 25.3197 64.0583 27.2931 63.4673C33.0086 61.7459 37.1606 58.0974 39.8004 53.2413C40.2105 52.4705 40.8769 51.5712 40.8512 50.4921C40.8256 49.3616 40.1849 48.5651 39.2622 48.2825C38.2114 47.9485 37.3656 48.4366 36.9299 49.1304C36.6736 49.5415 36.5198 49.9782 36.3404 50.415C36.1354 50.8518 35.9047 51.2372 35.6484 51.6483C33.3417 55.5794 29.7792 58.5342 24.6533 59.639C22.526 60.1015 19.8862 60.1015 17.7589 59.6647C13.6582 58.8168 10.6339 56.787 8.25029 53.9864C5.99488 51.3143 4.25207 47.6144 4.35459 42.6813C4.4571 37.9794 6.3537 34.5107 8.73726 31.89C11.1721 29.2179 14.3502 27.2138 18.6047 26.5714C21.5265 26.1347 24.7302 26.6485 26.9087 27.3936C27.3957 27.5478 27.7545 27.8304 28.2671 27.9332C29.446 28.1901 30.3687 27.4964 30.6762 26.6485C31.0863 25.4923 30.4968 24.4132 29.8305 23.925C29.4717 23.6424 28.9847 23.4882 28.5234 23.3341C26.2167 22.4862 23.5256 21.8695 20.3219 22.0237C18.0665 22.0751 15.9136 22.5119 13.9913 23.1799ZM27.7545 33.5344C28.0108 32.9177 28.3952 32.3011 28.4977 31.6845C28.754 30.1428 27.7032 28.9866 26.3192 29.0637C24.8071 29.1665 24.397 30.4255 23.91 31.556C22.5516 34.7163 21.1164 38.1849 19.8093 41.2168C18.8353 41.5765 17.8614 41.9876 16.8619 42.373C15.8623 42.7584 14.9396 43.2722 14.8115 44.4798C14.6833 45.8673 15.6829 46.8179 16.99 46.8179C17.8102 46.8179 18.5534 46.3555 19.2454 46.0728C19.9887 45.7645 20.7063 45.4819 21.3983 45.2249C24.602 46.6124 28.1902 48.1283 31.3939 49.5158C31.8808 49.7213 32.3934 50.0039 32.9317 50.0296C34.1619 50.1067 35.1358 49.2845 35.264 48.1797C35.3665 47.1263 34.8283 46.4325 34.2388 46.0471C33.7518 45.7131 33.0598 45.5076 32.4703 45.2506C30.625 44.4798 28.8053 43.7347 27.0625 42.9125C30.83 41.3966 34.6232 39.8807 38.442 38.3648C38.9803 38.1592 39.621 37.9537 40.0311 37.6454C40.7487 37.1315 41.1332 36.1294 40.8512 35.2045C40.5693 34.3309 39.8773 33.7399 38.8009 33.7142C37.9551 33.6886 37.2631 34.151 36.5967 34.4337C32.8804 35.9239 29.1128 37.4141 25.4478 38.9043C26.2167 37.2086 26.9856 35.3072 27.7545 33.5344Z" fill="black"/>
<path fill-rule="evenodd" clip-rule="evenodd" d="M25.4478 38.93C29.1128 37.4655 32.8548 35.9496 36.5967 34.4593C37.2887 34.1767 37.9551 33.7399 38.8009 33.7399C39.8773 33.7656 40.5693 34.3566 40.8512 35.2301C41.1332 36.1551 40.7487 37.1572 40.0311 37.671C39.621 37.9794 38.9803 38.1592 38.442 38.3904C34.6488 39.9064 30.8557 41.4223 27.0625 42.9382C28.8309 43.7604 30.6506 44.5055 32.4703 45.2763C33.0598 45.5332 33.7262 45.7388 34.2388 46.0728C34.8283 46.4582 35.3665 47.1519 35.264 48.2054C35.1614 49.3102 34.1619 50.1324 32.9317 50.0553C32.4191 50.0296 31.9065 49.7727 31.3939 49.5414C28.1645 48.154 24.602 46.6381 21.3983 45.2506C20.7063 45.5076 19.9887 45.7902 19.2454 46.0985C18.5278 46.3811 17.8102 46.8436 16.99 46.8436C15.6573 46.8436 14.6833 45.9187 14.8115 44.5055C14.9396 43.2979 15.8623 42.784 16.8619 42.3986C17.8614 41.9875 18.8354 41.6021 19.8093 41.2424C21.1164 38.2106 22.5517 34.742 23.91 31.5817C24.397 30.4511 24.8071 29.1665 26.3192 29.0894C27.7288 29.0123 28.754 30.1685 28.4977 31.7101C28.3952 32.3268 28.0364 32.9434 27.7545 33.5601C26.9856 35.3072 26.2167 37.2085 25.4478 38.93Z" fill="black"/>
<path d="M64.7638 44.7368H54.6913L51.2313 53.4983H49.3091L59.279 28.5242H60.3811L70.146 53.4983H68.1981L64.7638 44.7368ZM55.3064 43.1695H64.1743L60.7912 34.2024C60.5092 33.5087 60.1761 32.5324 59.766 31.2734C59.4584 32.3525 59.1252 33.3546 58.7664 34.2281L55.3064 43.1695Z" fill="black"/>
<path d="M73.0165 29.8859C73.0165 28.8068 73.3753 28.2415 74.0929 28.2415C74.4517 28.2415 74.708 28.3957 74.9131 28.6783C75.1181 28.9609 75.2206 29.372 75.2206 29.8859C75.2206 30.3998 75.1181 30.8109 74.9131 31.0935C74.708 31.3761 74.4517 31.5303 74.0929 31.5303C73.3753 31.5303 73.0165 30.9907 73.0165 29.8859ZM74.9387 53.4982H73.2471V34.9989H74.9387V53.4982Z" fill="black"/>
<path d="M88.3687 34.6649C89.1376 34.6649 89.9833 34.742 90.8804 34.8962L90.5472 36.5148C89.7783 36.3093 88.9838 36.2322 88.1636 36.2322C86.6002 36.2322 85.2931 36.9003 84.2936 38.2363C83.294 39.5724 82.7814 41.2682 82.7814 43.2979V53.4983H81.0898V34.9989H82.5251L82.7045 38.3391H82.8327C83.6015 36.9773 84.3961 36.0267 85.2675 35.4614C86.1133 34.9475 87.1384 34.6649 88.3687 34.6649Z" fill="black"/>
<path d="M114.998 53.4983H109.744V42.7584H99.9277V53.4983H94.6736V28.627H99.9277V38.3648H109.744V28.627H114.998V53.4983Z" fill="black"/>
<path d="M128.607 53.858C125.557 53.858 123.174 53.0101 121.457 51.3143C119.739 49.6186 118.868 47.2291 118.868 44.1458C118.868 40.9598 119.662 38.4933 121.251 36.7461C122.841 34.9989 125.045 34.1254 127.838 34.1254C130.529 34.1254 132.605 34.8962 134.092 36.4121C135.578 37.9537 136.322 40.0606 136.322 42.7584V45.2764H124.096C124.148 46.7409 124.583 47.8971 125.403 48.7193C126.224 49.5415 127.351 49.9526 128.838 49.9526C129.991 49.9526 131.068 49.8241 132.067 49.5929C133.092 49.3616 134.143 48.9762 135.245 48.4624V52.4705C134.348 52.933 133.374 53.267 132.349 53.4726C131.324 53.7295 130.068 53.858 128.607 53.858ZM127.864 37.8252C126.762 37.8252 125.916 38.1849 125.275 38.8787C124.66 39.5724 124.301 40.5744 124.199 41.8591H131.452C131.426 40.5744 131.093 39.5981 130.453 38.8787C129.837 38.1849 128.966 37.8252 127.864 37.8252Z" fill="black"/>
<path d="M145.728 53.4983H140.551V27.0339H145.728V53.4983Z" fill="black"/>
<path d="M160.747 53.858C158.517 53.858 156.774 53.0358 155.493 51.4171H155.211C155.39 53.0101 155.493 53.9351 155.493 54.1663V61.8744H150.315V34.4851H154.519L155.236 36.9517H155.467C156.672 35.076 158.466 34.1254 160.849 34.1254C163.079 34.1254 164.847 34.9989 166.103 36.7204C167.359 38.4676 168 40.8571 168 43.9403C168 45.9701 167.692 47.7429 167.103 49.2332C166.513 50.7234 165.668 51.8796 164.566 52.6504C163.515 53.4469 162.208 53.858 160.747 53.858ZM159.209 38.2877C157.927 38.2877 157.005 38.6731 156.415 39.4696C155.826 40.2661 155.518 41.5508 155.493 43.375V43.9403C155.493 45.9701 155.8 47.4346 156.39 48.3339C157.005 49.2075 157.953 49.6699 159.26 49.6699C161.567 49.6699 162.746 47.7429 162.746 43.9146C162.746 42.039 162.464 40.6515 161.9 39.7009C161.336 38.7502 160.439 38.2877 159.209 38.2877Z" fill="black"/>
</g>
</svg>
