<svg width="168" height="86" viewBox="0 0 168 86" fill="none" xmlns="http://www.w3.org/2000/svg">
<path opacity="0.5" d="M26.1922 35.0625V40.1875H38.4054C38.0316 43.0625 37.0761 45.1667 35.6222 46.6458C33.8359 48.4375 31.0526 50.3958 26.1922 50.3958C18.6732 50.3958 12.7951 44.3125 12.7951 36.7708C12.7951 29.2292 18.6732 23.1458 26.1922 23.1458C30.2425 23.1458 33.2128 24.75 35.3937 26.8125L38.987 23.2083C35.9545 20.25 31.8834 18 26.1922 18C15.8899 18 7.22852 26.4167 7.22852 36.75C7.22852 47.0833 15.8899 55.5 26.1922 55.5C31.7588 55.5 35.9545 53.6667 39.2363 50.25C42.6011 46.875 43.6604 42.1042 43.6604 38.2708C43.6604 37.0833 43.5774 35.9792 43.3904 35.0625H26.1922Z" fill="black"/>
<path opacity="0.5" d="M58.927 30.8958C52.2596 30.8958 46.8176 35.9792 46.8176 43C46.8176 49.9583 52.2596 55.1042 58.927 55.1042C65.5944 55.1042 71.0363 49.9792 71.0363 43C71.0363 35.9792 65.5944 30.8958 58.927 30.8958ZM58.927 50.3333C55.2713 50.3333 52.1142 47.3125 52.1142 43C52.1142 38.6458 55.2713 35.6667 58.927 35.6667C62.5826 35.6667 65.7398 38.6458 65.7398 43C65.7398 47.3125 62.5826 50.3333 58.927 50.3333Z" fill="black"/>
<path opacity="0.5" d="M118.29 33.6042H118.103C116.919 32.1875 114.634 30.8958 111.747 30.8958C105.724 30.8958 100.469 36.1667 100.469 43C100.469 49.7917 105.724 55.1042 111.747 55.1042C114.634 55.1042 116.919 53.8125 118.103 52.3542H118.29V54.0417C118.29 58.6667 115.818 61.1458 111.851 61.1458C108.611 61.1458 106.596 58.8125 105.765 56.8333L101.154 58.75C102.483 61.9583 105.994 65.8958 111.851 65.8958C118.061 65.8958 123.316 62.2292 123.316 53.2917V31.5208H118.29V33.6042ZM112.204 50.3333C108.548 50.3333 105.765 47.2083 105.765 43C105.765 38.7292 108.548 35.6667 112.204 35.6667C115.818 35.6667 118.643 38.7917 118.643 43.0417C118.664 47.2708 115.818 50.3333 112.204 50.3333Z" fill="black"/>
<path opacity="0.5" d="M85.9289 30.8958C79.2615 30.8958 73.8196 35.9792 73.8196 43C73.8196 49.9583 79.2615 55.1042 85.9289 55.1042C92.5964 55.1042 98.0383 49.9792 98.0383 43C98.0383 35.9792 92.5964 30.8958 85.9289 30.8958ZM85.9289 50.3333C82.2733 50.3333 79.1161 47.3125 79.1161 43C79.1161 38.6458 82.2733 35.6667 85.9289 35.6667C89.5846 35.6667 92.7418 38.6458 92.7418 43C92.7418 47.3125 89.5846 50.3333 85.9289 50.3333Z" fill="black"/>
<path opacity="0.5" d="M127.47 18.5H132.684V55.1042H127.47V18.5Z" fill="black"/>
<path opacity="0.5" d="M148.781 50.3333C146.081 50.3333 144.17 49.1042 142.924 46.6667L159.063 39.9792L158.523 38.6042C157.526 35.8958 154.452 30.8958 148.2 30.8958C141.989 30.8958 136.817 35.7917 136.817 43C136.817 49.7917 141.927 55.1042 148.781 55.1042C154.306 55.1042 157.505 51.7083 158.834 49.75L154.722 47C153.351 49 151.482 50.3333 148.781 50.3333ZM148.407 35.4375C150.547 35.4375 152.375 36.5417 152.977 38.1042L142.072 42.625C142.072 37.5417 145.666 35.4375 148.407 35.4375Z" fill="black"/>
</svg>
