<?xml version="1.0" encoding="UTF-8"?>
<svg width="18px" height="14px" viewBox="0 0 18 14" version="1.1" xmlns="http://www.w3.org/2000/svg" xmlns:xlink="http://www.w3.org/1999/xlink" transform="translate(0.000000, -2.000000)" fill="#ffdb22">
    <path d="M10.205,0.795 L10.205,0.795 L10.205,0.795 C9.76593362,1.23406638 9.76593362,1.94593362 10.205,2.385 L13.695,5.875 L1.125,5.875 L1.125,5.875 C0.503679656,5.875 -7.6089797e-17,6.37867966 0,7 L0,7 L0,7 C7.6089797e-17,7.62132034 0.503679656,8.125 1.125,8.125 L13.695,8.125 L10.205,11.615 L10.205,11.615 C9.76593362,12.0540664 9.76593362,12.7659336 10.205,13.205 L10.205,13.205 L10.205,13.205 C10.6440664,13.6440664 11.3559336,13.6440664 11.795,13.205 L18,7 L11.795,0.795 L11.795,0.795 C11.3559336,0.355933624 10.6440664,0.355933624 10.205,0.795 Z" id="path-1"></path>
</svg>
