<?xml version="1.0" encoding="UTF-8"?>
<svg width="266px" height="859px" viewBox="0 0 266 859" version="1.1" xmlns="http://www.w3.org/2000/svg" xmlns:xlink="http://www.w3.org/1999/xlink">
    <!-- Generator: Sketch 48.2 (47327) - http://www.bohemiancoding.com/sketch -->
    <title>top</title>
    <desc>Created with Sketch.</desc>
    <defs>
        <rect id="path-1" x="0" y="0" width="544" height="859"></rect>
        <path d="M54,0 C90.6666667,112.666667 149.333333,178.333333 230,197 C351,225 494,283 547,422 C582.333333,514.666667 574.666667,590 524,648 L30,616 C70.7707243,487.333333 87.1040576,402 79,360 C66.8439136,297 -18,283 4,209 C18.6666667,159.666667 35.3333333,90 54,0 Z" id="path-3"></path>
    </defs>
    <g id="✏️-Design" stroke="none" stroke-width="1" fill="none" fill-rule="evenodd">
        <g id="top" transform="translate(-278.000000, 0.000000)">
            <mask id="mask-2" fill="white">
                <use xlink:href="#path-1"></use>
            </mask>
            <g id="Mask"></g>
            <g mask="url(#mask-2)">
                <g transform="translate(124.000000, -2306.000000)">
                    <g id="img" stroke-width="1" fill="none" fill-rule="evenodd" transform="translate(154.000000, 2306.000000)">
                        <g id="Group-Copy-3-+-Group-Copy-2-Mask" transform="translate(342.500000, 519.000000) scale(-1, 1) translate(-342.500000, -519.000000) translate(58.000000, 195.000000)">
                            <mask id="mask-4" fill="white">
                                <use xlink:href="#path-3"></use>
                            </mask>
                            <use id="Mask" fill="#FF227A" xlink:href="#path-3"></use>
                            <g id="Group-Copy-2" mask="url(#mask-4)" fill="#D90D5E">
                                <g transform="translate(273.379869, 281.200379) rotate(-45.000000) translate(-273.379869, -281.200379) translate(239.879869, 187.700379)" id="Oval-Copy-18">
                                    <path d="M32.7790903,185.934129 C46.7539548,186.951368 59.8820801,186.623881 64.2497559,184.501462 C65.6176894,183.836732 66.7974502,181.925229 66.7974502,180.778914 C66.7974502,175.972528 62.9061178,175.804294 43.4494558,175.804294 C34.5558584,175.804294 21.2178504,175.726887 16.210129,175.804294 C8.49134659,175.923609 1.08612437e-15,175.609953 0,178.417622 C0,185.934129 13.0970631,184.501462 32.7790903,185.934129 Z"></path>
                                </g>
                            </g>
                            <g id="Group-Copy-7" mask="url(#mask-4)" fill="#D90D5E">
                                <g transform="translate(423.802561, 425.802561) rotate(-45.000000) translate(-423.802561, -425.802561) translate(390.302561, 332.302561)">
                                    <path d="M32.7790903,10.7667307 C49.6404513,13.4465456 61.1858168,10.7667307 61.1858168,6.13962175 C61.1858168,1.51251279 49.6404513,4.15020191 32.7790903,1.51251279 C15.9177293,-1.12517634 4.37236383,0.160746954 4.37236383,6.13962175 C4.37236383,12.1184965 15.9177293,8.08691577 32.7790903,10.7667307 Z" id="Oval-Copy-14"></path>
                                    <path d="M32.9125573,44.9521717 C48.2515077,44.9521717 60.0155471,45.6419238 64.383223,43.5195048 C65.7511564,42.8547741 65.6916476,39.912597 65.6916476,38.7662818 C65.6916476,33.9598961 60.0599859,36.05616 40.6033239,36.05616 C31.7097265,36.05616 20.0064966,33.917878 14.9987753,33.9952857 C7.27999286,34.1146001 1.64184774,34.6381644 0.133467018,37.4356642 C-0.166833773,37.9926133 0.133467018,39.4766645 0.133467018,40.145786 C0.133467018,46.3563115 12.7695271,44.9521717 32.9125573,44.9521717 Z" id="Oval-Copy-15"></path>
                                    <path d="M32.7790903,116.289455 C46.7539548,117.306694 59.8820801,116.979208 64.2497559,114.856789 C65.6176894,114.192058 66.7974502,112.280555 66.7974502,111.13424 C66.7974502,106.327854 62.9061178,106.159621 43.4494558,106.159621 C34.5558584,106.159621 21.2178504,106.082213 16.210129,106.159621 C8.49134659,106.278935 1.08612437e-15,105.96528 0,108.772948 C0,116.289455 13.0970631,114.856789 32.7790903,116.289455 Z" id="Oval-Copy-17"></path>
                                    <path d="M32.7790903,185.934129 C46.7539548,186.951368 59.8820801,186.623881 64.2497559,184.501462 C65.6176894,183.836732 66.7974502,181.925229 66.7974502,180.778914 C66.7974502,175.972528 62.9061178,175.804294 43.4494558,175.804294 C34.5558584,175.804294 21.2178504,175.726887 16.210129,175.804294 C8.49134659,175.923609 1.08612437e-15,175.609953 0,178.417622 C0,185.934129 13.0970631,184.501462 32.7790903,185.934129 Z" id="Oval-Copy-18"></path>
                                    <path d="M33.2882887,79.4616572 C45.5379381,79.4616572 54.9326722,80.1317185 58.4206877,78.0698894 C59.5131162,77.4241352 59.4655926,74.5659502 59.4655926,73.4523596 C59.4655926,68.7831847 54.9681609,70.8196053 39.4301167,70.8196053 C32.3277109,70.8196053 22.9815392,68.7423661 18.9823848,68.817564 C12.8181834,68.9334722 8.31557403,69.4420901 7.11098476,72.1597279 C6.87116526,72.7007775 7.11098476,74.1424625 7.11098476,74.7924822 C7.11098476,80.8257121 17.2021124,79.4616572 33.2882887,79.4616572 Z" id="Oval-Copy-16"></path>
                                    <path d="M30.3523927,150.06769 C42.6020421,150.06769 53.1413873,150.40552 63.5005111,150.40552 C65.057044,150.40552 65.3743842,144.548454 65.3743842,143.434864 C65.3743842,138.765689 54.9681609,140.464279 39.4301167,140.464279 C32.3277109,140.464279 28.1254152,140.389081 24.1262608,140.464279 C20.1271065,140.539477 5.09592166,138.229916 3.8913324,140.947554 C3.65151289,141.488604 3.11306592,143.613947 3.11306592,144.263967 C3.11306592,150.297197 14.2662164,150.06769 30.3523927,150.06769 Z" id="Oval-Copy-19"></path>
                                </g>
                            </g>
                            <g id="Group-Copy-9" mask="url(#mask-4)" fill="#D90D5E">
                                <g transform="translate(503.802561, 400.802561) rotate(-45.000000) translate(-503.802561, -400.802561) translate(470.302561, 307.302561)">
                                    <path d="M32.7790903,10.7667307 C49.6404513,13.4465456 61.1858168,10.7667307 61.1858168,6.13962175 C61.1858168,1.51251279 49.6404513,4.15020191 32.7790903,1.51251279 C15.9177293,-1.12517634 4.37236383,0.160746954 4.37236383,6.13962175 C4.37236383,12.1184965 15.9177293,8.08691577 32.7790903,10.7667307 Z" id="Oval-Copy-14"></path>
                                    <path d="M32.9125573,44.9521717 C48.2515077,44.9521717 60.0155471,45.6419238 64.383223,43.5195048 C65.7511564,42.8547741 65.6916476,39.912597 65.6916476,38.7662818 C65.6916476,33.9598961 60.0599859,36.05616 40.6033239,36.05616 C31.7097265,36.05616 20.0064966,33.917878 14.9987753,33.9952857 C7.27999286,34.1146001 1.64184774,34.6381644 0.133467018,37.4356642 C-0.166833773,37.9926133 0.133467018,39.4766645 0.133467018,40.145786 C0.133467018,46.3563115 12.7695271,44.9521717 32.9125573,44.9521717 Z" id="Oval-Copy-15"></path>
                                    <path d="M32.7790903,116.289455 C46.7539548,117.306694 59.8820801,116.979208 64.2497559,114.856789 C65.6176894,114.192058 66.7974502,112.280555 66.7974502,111.13424 C66.7974502,106.327854 62.9061178,106.159621 43.4494558,106.159621 C34.5558584,106.159621 21.2178504,106.082213 16.210129,106.159621 C8.49134659,106.278935 1.08612437e-15,105.96528 0,108.772948 C0,116.289455 13.0970631,114.856789 32.7790903,116.289455 Z" id="Oval-Copy-17"></path>
                                    <path d="M32.7790903,185.934129 C46.7539548,186.951368 59.8820801,186.623881 64.2497559,184.501462 C65.6176894,183.836732 66.7974502,181.925229 66.7974502,180.778914 C66.7974502,175.972528 62.9061178,175.804294 43.4494558,175.804294 C34.5558584,175.804294 21.2178504,175.726887 16.210129,175.804294 C8.49134659,175.923609 1.08612437e-15,175.609953 0,178.417622 C0,185.934129 13.0970631,184.501462 32.7790903,185.934129 Z" id="Oval-Copy-18"></path>
                                    <path d="M33.2882887,79.4616572 C45.5379381,79.4616572 54.9326722,80.1317185 58.4206877,78.0698894 C59.5131162,77.4241352 59.4655926,74.5659502 59.4655926,73.4523596 C59.4655926,68.7831847 54.9681609,70.8196053 39.4301167,70.8196053 C32.3277109,70.8196053 22.9815392,68.7423661 18.9823848,68.817564 C12.8181834,68.9334722 8.31557403,69.4420901 7.11098476,72.1597279 C6.87116526,72.7007775 7.11098476,74.1424625 7.11098476,74.7924822 C7.11098476,80.8257121 17.2021124,79.4616572 33.2882887,79.4616572 Z" id="Oval-Copy-16"></path>
                                    <path d="M30.3523927,150.06769 C42.6020421,150.06769 53.1413873,150.40552 63.5005111,150.40552 C65.057044,150.40552 65.3743842,144.548454 65.3743842,143.434864 C65.3743842,138.765689 54.9681609,140.464279 39.4301167,140.464279 C32.3277109,140.464279 28.1254152,140.389081 24.1262608,140.464279 C20.1271065,140.539477 5.09592166,138.229916 3.8913324,140.947554 C3.65151289,141.488604 3.11306592,143.613947 3.11306592,144.263967 C3.11306592,150.297197 14.2662164,150.06769 30.3523927,150.06769 Z" id="Oval-Copy-19"></path>
                                </g>
                            </g>
                            <g id="Group-Copy-10" mask="url(#mask-4)" fill="#D90D5E">
                                <g transform="translate(480.802561, 271.802561) rotate(-45.000000) translate(-480.802561, -271.802561) translate(447.302561, 178.302561)">
                                    <path d="M32.7790903,10.7667307 C49.6404513,13.4465456 61.1858168,10.7667307 61.1858168,6.13962175 C61.1858168,1.51251279 49.6404513,4.15020191 32.7790903,1.51251279 C15.9177293,-1.12517634 4.37236383,0.160746954 4.37236383,6.13962175 C4.37236383,12.1184965 15.9177293,8.08691577 32.7790903,10.7667307 Z" id="Oval-Copy-14"></path>
                                    <path d="M32.9125573,44.9521717 C48.2515077,44.9521717 60.0155471,45.6419238 64.383223,43.5195048 C65.7511564,42.8547741 65.6916476,39.912597 65.6916476,38.7662818 C65.6916476,33.9598961 60.0599859,36.05616 40.6033239,36.05616 C31.7097265,36.05616 20.0064966,33.917878 14.9987753,33.9952857 C7.27999286,34.1146001 1.64184774,34.6381644 0.133467018,37.4356642 C-0.166833773,37.9926133 0.133467018,39.4766645 0.133467018,40.145786 C0.133467018,46.3563115 12.7695271,44.9521717 32.9125573,44.9521717 Z" id="Oval-Copy-15"></path>
                                    <path d="M32.7790903,116.289455 C46.7539548,117.306694 59.8820801,116.979208 64.2497559,114.856789 C65.6176894,114.192058 66.7974502,112.280555 66.7974502,111.13424 C66.7974502,106.327854 62.9061178,106.159621 43.4494558,106.159621 C34.5558584,106.159621 21.2178504,106.082213 16.210129,106.159621 C8.49134659,106.278935 1.08612437e-15,105.96528 0,108.772948 C0,116.289455 13.0970631,114.856789 32.7790903,116.289455 Z" id="Oval-Copy-17"></path>
                                    <path d="M32.7790903,185.934129 C46.7539548,186.951368 59.8820801,186.623881 64.2497559,184.501462 C65.6176894,183.836732 66.7974502,181.925229 66.7974502,180.778914 C66.7974502,175.972528 62.9061178,175.804294 43.4494558,175.804294 C34.5558584,175.804294 21.2178504,175.726887 16.210129,175.804294 C8.49134659,175.923609 1.08612437e-15,175.609953 0,178.417622 C0,185.934129 13.0970631,184.501462 32.7790903,185.934129 Z" id="Oval-Copy-18"></path>
                                    <path d="M33.2882887,79.4616572 C45.5379381,79.4616572 54.9326722,80.1317185 58.4206877,78.0698894 C59.5131162,77.4241352 59.4655926,74.5659502 59.4655926,73.4523596 C59.4655926,68.7831847 54.9681609,70.8196053 39.4301167,70.8196053 C32.3277109,70.8196053 22.9815392,68.7423661 18.9823848,68.817564 C12.8181834,68.9334722 8.31557403,69.4420901 7.11098476,72.1597279 C6.87116526,72.7007775 7.11098476,74.1424625 7.11098476,74.7924822 C7.11098476,80.8257121 17.2021124,79.4616572 33.2882887,79.4616572 Z" id="Oval-Copy-16"></path>
                                    <path d="M30.3523927,150.06769 C42.6020421,150.06769 53.1413873,150.40552 63.5005111,150.40552 C65.057044,150.40552 65.3743842,144.548454 65.3743842,143.434864 C65.3743842,138.765689 54.9681609,140.464279 39.4301167,140.464279 C32.3277109,140.464279 28.1254152,140.389081 24.1262608,140.464279 C20.1271065,140.539477 5.09592166,138.229916 3.8913324,140.947554 C3.65151289,141.488604 3.11306592,143.613947 3.11306592,144.263967 C3.11306592,150.297197 14.2662164,150.06769 30.3523927,150.06769 Z" id="Oval-Copy-19"></path>
                                </g>
                            </g>
                            <g id="Group-Copy-4" mask="url(#mask-4)" fill="#D90D5E">
                                <g transform="translate(387.832379, 282.623654) rotate(-45.000000) translate(-387.832379, -282.623654) translate(354.332379, 189.123654)">
                                    <path d="M32.9125573,44.9521717 C48.2515077,44.9521717 60.0155471,45.6419238 64.383223,43.5195048 C65.7511564,42.8547741 65.6916476,39.912597 65.6916476,38.7662818 C65.6916476,33.9598961 60.0599859,36.05616 40.6033239,36.05616 C31.7097265,36.05616 20.0064966,33.917878 14.9987753,33.9952857 C7.27999286,34.1146001 1.64184774,34.6381644 0.133467018,37.4356642 C-0.166833773,37.9926133 0.133467018,39.4766645 0.133467018,40.145786 C0.133467018,46.3563115 12.7695271,44.9521717 32.9125573,44.9521717 Z" id="Oval-Copy-15"></path>
                                    <path d="M32.7790903,116.289455 C46.7539548,117.306694 59.8820801,116.979208 64.2497559,114.856789 C65.6176894,114.192058 66.7974502,112.280555 66.7974502,111.13424 C66.7974502,106.327854 62.9061178,106.159621 43.4494558,106.159621 C34.5558584,106.159621 21.2178504,106.082213 16.210129,106.159621 C8.49134659,106.278935 1.08612437e-15,105.96528 0,108.772948 C0,116.289455 13.0970631,114.856789 32.7790903,116.289455 Z" id="Oval-Copy-17"></path>
                                    <path d="M32.7790903,185.934129 C46.7539548,186.951368 59.8820801,186.623881 64.2497559,184.501462 C65.6176894,183.836732 66.7974502,181.925229 66.7974502,180.778914 C66.7974502,175.972528 62.9061178,175.804294 43.4494558,175.804294 C34.5558584,175.804294 21.2178504,175.726887 16.210129,175.804294 C8.49134659,175.923609 1.08612437e-15,175.609953 0,178.417622 C0,185.934129 13.0970631,184.501462 32.7790903,185.934129 Z" id="Oval-Copy-18"></path>
                                    <path d="M33.2882887,79.4616572 C45.5379381,79.4616572 54.9326722,80.1317185 58.4206877,78.0698894 C59.5131162,77.4241352 59.4655926,74.5659502 59.4655926,73.4523596 C59.4655926,68.7831847 54.9681609,70.8196053 39.4301167,70.8196053 C32.3277109,70.8196053 22.9815392,68.7423661 18.9823848,68.817564 C12.8181834,68.9334722 8.31557403,69.4420901 7.11098476,72.1597279 C6.87116526,72.7007775 7.11098476,74.1424625 7.11098476,74.7924822 C7.11098476,80.8257121 17.2021124,79.4616572 33.2882887,79.4616572 Z" id="Oval-Copy-16"></path>
                                    <path d="M30.3523927,150.06769 C42.6020421,150.06769 53.1413873,150.40552 63.5005111,150.40552 C65.057044,150.40552 65.3743842,144.548454 65.3743842,143.434864 C65.3743842,138.765689 54.9681609,140.464279 39.4301167,140.464279 C32.3277109,140.464279 28.1254152,140.389081 24.1262608,140.464279 C20.1271065,140.539477 5.09592166,138.229916 3.8913324,140.947554 C3.65151289,141.488604 3.11306592,143.613947 3.11306592,144.263967 C3.11306592,150.297197 14.2662164,150.06769 30.3523927,150.06769 Z" id="Oval-Copy-19"></path>
                                </g>
                            </g>
                            <g id="Group-Copy" mask="url(#mask-4)" fill="#D90D5E">
                                <g transform="translate(570.604711, 575.621854) rotate(-45.000000) translate(-570.604711, -575.621854) translate(537.104711, 482.121854)">
                                    <path d="M32.7790903,10.7667307 C49.6404513,13.4465456 61.1858168,10.7667307 61.1858168,6.13962175 C61.1858168,1.51251279 49.6404513,4.15020191 32.7790903,1.51251279 C15.9177293,-1.12517634 4.37236383,0.160746954 4.37236383,6.13962175 C4.37236383,12.1184965 15.9177293,8.08691577 32.7790903,10.7667307 Z" id="Oval-Copy-14"></path>
                                    <path d="M32.9125573,44.9521717 C48.2515077,44.9521717 60.0155471,45.6419238 64.383223,43.5195048 C65.7511564,42.8547741 65.6916476,39.912597 65.6916476,38.7662818 C65.6916476,33.9598961 60.0599859,36.05616 40.6033239,36.05616 C31.7097265,36.05616 20.0064966,33.917878 14.9987753,33.9952857 C7.27999286,34.1146001 1.64184774,34.6381644 0.133467018,37.4356642 C-0.166833773,37.9926133 0.133467018,39.4766645 0.133467018,40.145786 C0.133467018,46.3563115 12.7695271,44.9521717 32.9125573,44.9521717 Z" id="Oval-Copy-15"></path>
                                    <path d="M32.7790903,116.289455 C46.7539548,117.306694 59.8820801,116.979208 64.2497559,114.856789 C65.6176894,114.192058 66.7974502,112.280555 66.7974502,111.13424 C66.7974502,106.327854 62.9061178,106.159621 43.4494558,106.159621 C34.5558584,106.159621 21.2178504,106.082213 16.210129,106.159621 C8.49134659,106.278935 1.08612437e-15,105.96528 0,108.772948 C0,116.289455 13.0970631,114.856789 32.7790903,116.289455 Z" id="Oval-Copy-17"></path>
                                    <path d="M32.7790903,185.934129 C46.7539548,186.951368 59.8820801,186.623881 64.2497559,184.501462 C65.6176894,183.836732 66.7974502,181.925229 66.7974502,180.778914 C66.7974502,175.972528 62.9061178,175.804294 43.4494558,175.804294 C34.5558584,175.804294 21.2178504,175.726887 16.210129,175.804294 C8.49134659,175.923609 1.08612437e-15,175.609953 0,178.417622 C0,185.934129 13.0970631,184.501462 32.7790903,185.934129 Z" id="Oval-Copy-18"></path>
                                    <path d="M33.2882887,79.4616572 C45.5379381,79.4616572 54.9326722,80.1317185 58.4206877,78.0698894 C59.5131162,77.4241352 59.4655926,74.5659502 59.4655926,73.4523596 C59.4655926,68.7831847 54.9681609,70.8196053 39.4301167,70.8196053 C32.3277109,70.8196053 22.9815392,68.7423661 18.9823848,68.817564 C12.8181834,68.9334722 8.31557403,69.4420901 7.11098476,72.1597279 C6.87116526,72.7007775 7.11098476,74.1424625 7.11098476,74.7924822 C7.11098476,80.8257121 17.2021124,79.4616572 33.2882887,79.4616572 Z" id="Oval-Copy-16"></path>
                                    <path d="M30.3523927,150.06769 C42.6020421,150.06769 53.1413873,150.40552 63.5005111,150.40552 C65.057044,150.40552 65.3743842,144.548454 65.3743842,143.434864 C65.3743842,138.765689 54.9681609,140.464279 39.4301167,140.464279 C32.3277109,140.464279 28.1254152,140.389081 24.1262608,140.464279 C20.1271065,140.539477 5.09592166,138.229916 3.8913324,140.947554 C3.65151289,141.488604 3.11306592,143.613947 3.11306592,144.263967 C3.11306592,150.297197 14.2662164,150.06769 30.3523927,150.06769 Z" id="Oval-Copy-19"></path>
                                </g>
                            </g>
                            <g id="Group-Copy-8" mask="url(#mask-4)" fill="#D90D5E">
                                <g transform="translate(275.027477, 374.040222) rotate(-45.000000) translate(-275.027477, -374.040222) translate(241.527477, 280.540222)" id="Oval-Copy-18">
                                    <path d="M32.7790903,185.934129 C46.7539548,186.951368 59.8820801,186.623881 64.2497559,184.501462 C65.6176894,183.836732 66.7974502,181.925229 66.7974502,180.778914 C66.7974502,175.972528 62.9061178,175.804294 43.4494558,175.804294 C34.5558584,175.804294 21.2178504,175.726887 16.210129,175.804294 C8.49134659,175.923609 1.08612437e-15,175.609953 0,178.417622 C0,185.934129 13.0970631,184.501462 32.7790903,185.934129 Z"></path>
                                </g>
                            </g>
                            <g id="Group-Copy-6" mask="url(#mask-4)" fill="#D90D5E">
                                <g transform="translate(344.536919, 116.968558) rotate(-45.000000) translate(-344.536919, -116.968558) translate(311.036919, 23.468558)">
                                    <path d="M32.7790903,116.289455 C46.7539548,117.306694 59.8820801,116.979208 64.2497559,114.856789 C65.6176894,114.192058 66.7974502,112.280555 66.7974502,111.13424 C66.7974502,106.327854 62.9061178,106.159621 43.4494558,106.159621 C34.5558584,106.159621 21.2178504,106.082213 16.210129,106.159621 C8.49134659,106.278935 1.08612437e-15,105.96528 0,108.772948 C0,116.289455 13.0970631,114.856789 32.7790903,116.289455 Z" id="Oval-Copy-17"></path>
                                    <path d="M32.7790903,185.934129 C46.7539548,186.951368 59.8820801,186.623881 64.2497559,184.501462 C65.6176894,183.836732 66.7974502,181.925229 66.7974502,180.778914 C66.7974502,175.972528 62.9061178,175.804294 43.4494558,175.804294 C34.5558584,175.804294 21.2178504,175.726887 16.210129,175.804294 C8.49134659,175.923609 1.08612437e-15,175.609953 0,178.417622 C0,185.934129 13.0970631,184.501462 32.7790903,185.934129 Z" id="Oval-Copy-18"></path>
                                    <path d="M30.3523927,150.06769 C42.6020421,150.06769 53.1413873,150.40552 63.5005111,150.40552 C65.057044,150.40552 65.3743842,144.548454 65.3743842,143.434864 C65.3743842,138.765689 54.9681609,140.464279 39.4301167,140.464279 C32.3277109,140.464279 28.1254152,140.389081 24.1262608,140.464279 C20.1271065,140.539477 5.09592166,138.229916 3.8913324,140.947554 C3.65151289,141.488604 3.11306592,143.613947 3.11306592,144.263967 C3.11306592,150.297197 14.2662164,150.06769 30.3523927,150.06769 Z" id="Oval-Copy-19"></path>
                                </g>
                            </g>
                            <g id="Group-Copy-16" mask="url(#mask-4)" fill="#D90D5E">
                                <g transform="translate(463.802561, 585.753712) rotate(-45.000000) translate(-463.802561, -585.753712) translate(430.302561, 492.253712)">
                                    <path d="M32.7790903,10.7667307 C49.6404513,13.4465456 61.1858168,10.7667307 61.1858168,6.13962175 C61.1858168,1.51251279 49.6404513,4.15020191 32.7790903,1.51251279 C15.9177293,-1.12517634 4.37236383,0.160746954 4.37236383,6.13962175 C4.37236383,12.1184965 15.9177293,8.08691577 32.7790903,10.7667307 Z" id="Oval-Copy-14"></path>
                                    <path d="M32.9125573,44.9521717 C48.2515077,44.9521717 60.0155471,45.6419238 64.383223,43.5195048 C65.7511564,42.8547741 65.6916476,39.912597 65.6916476,38.7662818 C65.6916476,33.9598961 60.0599859,36.05616 40.6033239,36.05616 C31.7097265,36.05616 20.0064966,33.917878 14.9987753,33.9952857 C7.27999286,34.1146001 1.64184774,34.6381644 0.133467018,37.4356642 C-0.166833773,37.9926133 0.133467018,39.4766645 0.133467018,40.145786 C0.133467018,46.3563115 12.7695271,44.9521717 32.9125573,44.9521717 Z" id="Oval-Copy-15"></path>
                                    <path d="M32.7790903,116.289455 C46.7539548,117.306694 59.8820801,116.979208 64.2497559,114.856789 C65.6176894,114.192058 66.7974502,112.280555 66.7974502,111.13424 C66.7974502,106.327854 62.9061178,106.159621 43.4494558,106.159621 C34.5558584,106.159621 21.2178504,106.082213 16.210129,106.159621 C8.49134659,106.278935 1.08612437e-15,105.96528 0,108.772948 C0,116.289455 13.0970631,114.856789 32.7790903,116.289455 Z" id="Oval-Copy-17"></path>
                                    <path d="M32.7790903,185.934129 C46.7539548,186.951368 59.8820801,186.623881 64.2497559,184.501462 C65.6176894,183.836732 66.7974502,181.925229 66.7974502,180.778914 C66.7974502,175.972528 62.9061178,175.804294 43.4494558,175.804294 C34.5558584,175.804294 21.2178504,175.726887 16.210129,175.804294 C8.49134659,175.923609 1.08612437e-15,175.609953 0,178.417622 C0,185.934129 13.0970631,184.501462 32.7790903,185.934129 Z" id="Oval-Copy-18"></path>
                                    <path d="M33.2882887,79.4616572 C45.5379381,79.4616572 54.9326722,80.1317185 58.4206877,78.0698894 C59.5131162,77.4241352 59.4655926,74.5659502 59.4655926,73.4523596 C59.4655926,68.7831847 54.9681609,70.8196053 39.4301167,70.8196053 C32.3277109,70.8196053 22.9815392,68.7423661 18.9823848,68.817564 C12.8181834,68.9334722 8.31557403,69.4420901 7.11098476,72.1597279 C6.87116526,72.7007775 7.11098476,74.1424625 7.11098476,74.7924822 C7.11098476,80.8257121 17.2021124,79.4616572 33.2882887,79.4616572 Z" id="Oval-Copy-16"></path>
                                    <path d="M30.3523927,150.06769 C42.6020421,150.06769 53.1413873,150.40552 63.5005111,150.40552 C65.057044,150.40552 65.3743842,144.548454 65.3743842,143.434864 C65.3743842,138.765689 54.9681609,140.464279 39.4301167,140.464279 C32.3277109,140.464279 28.1254152,140.389081 24.1262608,140.464279 C20.1271065,140.539477 5.09592166,138.229916 3.8913324,140.947554 C3.65151289,141.488604 3.11306592,143.613947 3.11306592,144.263967 C3.11306592,150.297197 14.2662164,150.06769 30.3523927,150.06769 Z" id="Oval-Copy-19"></path>
                                </g>
                            </g>
                        </g>
                        <path d="M235.510954,324 C218.747098,324 178.935697,280.340426 182.882808,217.148936 C186.829919,153.957447 163.147253,119.489362 102.624885,94.212766 C42.1025169,68.9361702 0,0 0,0 C0,0 27.1912088,1.68615122e-15 81.5736264,5.05845366e-15 L182.882808,5.62050406e-16 L420.458015,0 C375.938931,16.911032 343.896867,34.3785631 324.331822,52.4025934 C297.113173,77.4774006 282.034956,110.490823 295.557252,149.633588 C309.079548,188.776352 278.244275,209.707579 278.244275,249.801527 C278.244275,277.926441 252.274809,324 235.510954,324 Z" id="Path-3" fill="#0394FF"></path>
                        <path d="M203.798984,720.659242 C187.658255,702.257558 175.847979,695.219968 170.465162,694.559041 C165.082345,693.898115 144.619665,696.575981 130.199931,723.621801 C103.866801,773.012524 116.620881,789.790602 101.330676,794.63283 C91.1372069,797.860981 69.6989365,813.821841 37.0158652,842.515408 L302.025688,875.054522 C271.931701,833.571774 254.196519,806.317819 248.820141,793.292657 C235.228848,760.365509 211.898063,729.892821 203.798984,720.659242 Z" id="Path-2" fill="#0394FF" transform="translate(169.520776, 784.764902) scale(-1, 1) rotate(-7.000000) translate(-169.520776, -784.764902) "></path>
                    </g>
                    <path d="M660.842734,2557.22333 C661.271393,2558.24133 660.79364,2559.41407 659.775642,2559.84273 C658.757644,2560.27139 657.584896,2559.79364 657.156236,2558.77564 C631.324939,2497.43049 596.903107,2452.74834 553.906256,2424.67447 C529.041886,2408.43981 503.280491,2399.12337 474.692721,2394.85699 C453.142953,2391.64094 435.84078,2391.34509 399.336479,2392.42892 C384.643685,2392.86516 378.701596,2392.99991 371.000017,2392.99991 C314.93817,2392.99991 251.570138,2358.7427 221.395128,2312.78594 C201.706526,2282.80005 179.31811,2243.51304 154.223376,2194.91808 C153.716559,2193.93665 154.10131,2192.73019 155.082741,2192.22338 C156.064172,2191.71656 157.270635,2192.10131 157.777451,2193.08274 C182.813264,2241.5636 205.135877,2280.73514 224.738784,2310.59051 C254.174874,2355.42189 316.286572,2388.99992 371.000017,2388.99992 C378.647967,2388.99992 384.56576,2388.86572 399.21777,2388.43069 C435.953382,2387.34 453.424985,2387.63874 475.283134,2390.90081 C504.420333,2395.24919 530.726593,2404.76268 556.093098,2421.32519 C599.808545,2449.86826 634.719918,2495.18587 660.842734,2557.22333 Z" id="Path-4" fill="#FFFFFF" fill-rule="nonzero"></path>
                    <path d="M661.842734,2519.22333 C662.271393,2520.24133 661.79364,2521.41407 660.775642,2521.84273 C659.757644,2522.27139 658.584896,2521.79364 658.156237,2520.77564 C632.324941,2459.4305 600.903105,2429.74831 557.906256,2401.67444 C533.041886,2385.43978 507.280492,2377.12334 478.692724,2372.85696 C457.142957,2369.64092 439.840784,2368.34507 403.336485,2369.4289 C388.643692,2369.86513 382.701603,2369.99988 375.000024,2369.99988 C318.93818,2369.99988 259.570143,2333.74268 229.395135,2287.78592 C209.706533,2257.80004 192.318109,2218.51304 167.223376,2169.91808 C166.716559,2168.93665 167.10131,2167.73019 168.082741,2167.22338 C169.064172,2166.71656 170.270634,2167.10131 170.777451,2168.08274 C195.813263,2216.5636 213.135884,2255.73513 232.738791,2285.5905 C262.174879,2330.42188 320.286582,2365.99989 375.000024,2365.99989 C382.647974,2365.99989 388.565767,2365.86569 403.217776,2365.43067 C439.953386,2364.33997 457.424989,2365.63872 479.283137,2368.90078 C508.420334,2373.24916 534.726593,2381.76265 560.093097,2398.32517 C603.808542,2426.86823 635.719919,2457.18588 661.842734,2519.22333 Z" id="Path-4-Copy" fill="#FFFFFF" fill-rule="nonzero"></path>
                    <path d="M673.842734,2496.22333 C674.271393,2497.24133 673.79364,2498.41407 672.775642,2498.84273 C671.757644,2499.27139 670.584896,2498.79364 670.156237,2497.77564 C644.324941,2436.4305 612.903105,2406.74831 569.906256,2378.67444 C545.041886,2362.43978 519.280492,2354.12334 490.692724,2349.85696 C469.142957,2346.64092 451.840784,2345.34507 415.336485,2346.4289 C400.643692,2346.86513 394.701603,2346.99988 387.000024,2346.99988 C330.93818,2346.99988 271.570143,2310.74268 241.395135,2264.78592 C221.706533,2234.80004 204.318109,2195.51304 179.223376,2146.91808 C178.716559,2145.93665 179.10131,2144.73019 180.082741,2144.22338 C181.064172,2143.71656 182.270634,2144.10131 182.777451,2145.08274 C207.813263,2193.5636 225.135884,2232.73513 244.738791,2262.5905 C274.174879,2307.42188 332.286582,2342.99989 387.000024,2342.99989 C394.647974,2342.99989 400.565767,2342.86569 415.217776,2342.43067 C451.953386,2341.33997 469.424989,2342.63872 491.283137,2345.90078 C520.420334,2350.24916 546.726593,2358.76265 572.093097,2375.32517 C615.808542,2403.86823 647.719919,2434.18588 673.842734,2496.22333 Z" id="Path-4-Copy-2" fill="#FFFFFF" fill-rule="nonzero"></path>
                    <g id="Group-2" stroke-width="1" fill="none" fill-rule="evenodd" transform="translate(206.685563, 2364.488369) rotate(-22.000000) translate(-206.685563, -2364.488369) translate(173.685563, 2339.988369)">
                        <path d="M27.1689102,17.5274821 C39.4185597,17.5274821 48.8132937,18.1975434 52.3013093,16.1357143 C53.3937377,15.4899601 53.3462142,12.6317751 53.3462142,11.5181845 C53.3462142,6.84900958 48.8487824,8.88543016 33.3107382,8.88543016 C26.2083324,8.88543016 16.8621607,6.80819105 12.8630063,6.88338892 C6.69880495,6.99929714 2.1961956,7.50791501 0.991606327,10.2255528 C0.751786826,10.7666024 0.991606327,12.2082874 0.991606327,12.8583071 C0.991606327,18.891537 11.082734,17.5274821 27.1689102,17.5274821 Z" id="Oval-Copy-24" fill="#FFE222" transform="translate(27.115769, 12.270567) scale(1, -1) rotate(-345.000000) translate(-27.115769, -12.270567) "></path>
                        <path d="M38.8992408,41.62961 C51.1488903,41.62961 60.5436243,42.2996713 64.0316399,40.2378423 C65.1240683,39.5920881 65.0765448,36.733903 65.0765448,35.6203124 C65.0765448,30.9511375 60.579113,32.9875581 45.0410688,32.9875581 C37.938663,32.9875581 28.5924913,30.910319 24.5933369,30.9855169 C18.4291355,31.1014251 13.9265262,31.6100429 12.7219369,34.3276807 C12.4821174,34.8687303 12.7219369,36.3104154 12.7219369,36.9604351 C12.7219369,42.993665 22.8130646,41.62961 38.8992408,41.62961 Z" id="Oval-Copy-25" fill="#FFE222" transform="translate(38.846100, 36.372695) scale(1, -1) rotate(-345.000000) translate(-38.846100, -36.372695) "></path>
                    </g>
                </g>
            </g>
        </g>
    </g>
</svg>