<?xml version="1.0" encoding="UTF-8"?>
<svg width="32px" height="31px" viewBox="0 0 32 31" version="1.1" xmlns="http://www.w3.org/2000/svg" xmlns:xlink="http://www.w3.org/1999/xlink">
    <!-- Generator: Sketch 48.2 (47327) - http://www.bohemiancoding.com/sketch -->
    <title>Group 6</title>
    <desc>Created with Sketch.</desc>
    <defs></defs>
    <g id="lalazdigitala_hp_v4_copy" stroke="none" stroke-width="1" fill="none" fill-rule="evenodd" transform="translate(-195.000000, -2994.000000)">
        <g id="program" transform="translate(-7.000000, 2811.000000)">
            <g id="poszukujaca" transform="translate(198.000000, 178.000000)">
                <g id="Group-6" transform="translate(19.145644, 22.758285) scale(-1, 1) rotate(-337.000000) translate(-19.145644, -22.758285) translate(6.645644, 4.258285)">
                    <path d="M6.69894797,29.3477404 C11.2787751,29.3477404 14.7912231,29.7336038 16.0953019,28.5462732 C16.5037327,28.1744073 16.4859648,26.528485 16.4859648,25.8872096 C16.4859648,23.1984055 14.8044914,24.3711043 8.9952186,24.3711043 C6.33981276,24.3711043 2.8455209,23.1748996 1.35034051,23.2182033 C-0.95429496,23.2849505 -2.63770414,23.5778446 -3.08806891,25.1428311 C-3.17773122,25.4544014 -3.08806891,26.2846142 -3.08806891,26.6589363 C-3.08806891,30.1332489 0.684742715,29.3477404 6.69894797,29.3477404 Z" id="Oval-Copy-26" fill="#1D11FC" transform="translate(6.679080, 26.320478) rotate(-69.000000) translate(-6.679080, -26.320478) "></path>
                    <path d="M13.0329402,24.3792501 C19.4936262,24.3792501 24.1793765,18.8585102 24.7310471,12.6533483 C25.2827177,6.44818637 19.6209705,1.65624947 13.0329402,0.927446461 C6.44490989,0.198643451 2.30510261,5.54931392 1.33483332,12.6533483 C0.364564019,19.7573826 6.57225417,24.3792501 13.0329402,24.3792501 Z" id="Oval-2" fill="#1D11FC"></path>
                    <path d="M13.0503053,18.9790744 C16.5615185,18.9790744 19.1081007,15.9786972 19.4079192,12.6063547 C19.7077376,9.23401221 16.6307268,6.62972036 13.0503053,6.23363506 C9.46988387,5.83754977 7.22000734,8.74549864 6.69269146,12.6063547 C6.16537558,16.4672108 9.53909214,18.9790744 13.0503053,18.9790744 Z" id="Oval-2-Copy" fill="#FFFFFF"></path>
                </g>
            </g>
        </g>
    </g>
</svg>