<?xml version="1.0" encoding="UTF-8"?>
<svg width="34px" height="25px" viewBox="0 0 34 25" version="1.1" xmlns="http://www.w3.org/2000/svg" xmlns:xlink="http://www.w3.org/1999/xlink">
    <!-- Generator: Sketch 48.2 (47327) - http://www.bohemiancoding.com/sketch -->
    <title>Group 7</title>
    <desc>Created with Sketch.</desc>
    <defs></defs>
    <g id="lalazdigitala_hp_v4_copy" stroke="none" stroke-width="1" fill="none" fill-rule="evenodd" transform="translate(-772.000000, -3033.000000)">
        <g id="program" transform="translate(-7.000000, 2811.000000)" stroke="#FC2178" stroke-width="4">
            <g id="poczatkujaca" transform="translate(779.000000, 212.000000)">
                <g id="Group-7" transform="translate(17.500000, 17.500000) rotate(-360.000000) translate(-17.500000, -17.500000) ">
                    <path d="M9,20.5 C9,22.4995591 9,23.9995591 9,25.455797 C9,25.8094392 9,28.080409 9,28.4995591 C9,30.4995591 12.2390153,32.9995591 17.6097669,32.9995591 C21.6996031,32.9995591 24.9664051,30.5963506 26.1309618,29.2668279 C26.495695,28.8504282 25.9407205,21.2180731 25.9407205,20.5" id="Oval-Copy-26"></path>
                    <path d="M31.5,18 C31.5,19.9995591 31.5,21.4995591 31.5,22.955797 C31.5,23.3094392 31.5,25.580409 31.5,25.9995591" id="Oval-Copy-27" stroke-linecap="round"></path>
                    <path d="M7.28516342,7.45078646 C7.33632087,7.69928508 7.403584,7.97836258 7.48679604,8.28413203 C7.86624999,9.67846657 8.54535029,11.5206114 9.42159811,13.5665268 C10.2133567,15.4151717 11.128702,17.3400998 11.9655158,18.9317629 C12.7042443,20.3368627 13.3435992,21.3858123 13.5032785,21.5454917 C13.6777171,21.7199303 14.6957203,22.3588688 16.0408061,23.086331 C17.5932413,23.9259339 19.4374723,24.8209501 21.1992532,25.5794155 C23.174921,26.4299615 24.9473277,27.0675368 26.299838,27.3997137 C26.7473939,27.5096335 27.1360489,27.5825805 27.4529333,27.6192275 C27.4203524,27.3151988 27.3543104,26.9442467 27.2538827,26.5183019 C26.9410443,25.1914584 26.3262199,23.4520966 25.5014587,21.5250508 C24.030843,18.0889728 22.0140241,14.4184931 21.3221506,13.7266196 C20.6670056,13.0714746 16.8870166,11.0522198 13.2406609,9.49951714 C11.2449009,8.64967628 9.43444934,7.99300527 8.06420868,7.63272137 C7.77961189,7.55789098 7.51879577,7.49722457 7.28516342,7.45078646 Z M27.4644864,28.2305729 C27.4641219,28.2317834 27.4637641,28.2329888 27.4634132,28.2341888 C27.4641855,28.2315477 27.4651853,28.2263788 27.4662907,28.2187703 Z" id="Rectangle-9" transform="translate(17.320538, 17.492319) rotate(-45.000000) translate(-17.320538, -17.492319) "></path>
                </g>
            </g>
        </g>
    </g>
</svg>