<?xml version="1.0" encoding="UTF-8"?>
<svg width="124px" height="30px" viewBox="0 0 124 30" version="1.1" xmlns="http://www.w3.org/2000/svg" xmlns:xlink="http://www.w3.org/1999/xlink">
    <!-- Generator: Sketch 48.2 (47327) - http://www.bohemiancoding.com/sketch -->
    <title>logo</title>
    <desc>Created with Sketch.</desc>
    <defs></defs>
    <g id="✏️-Design" stroke="none" stroke-width="1" fill="none" fill-rule="evenodd">
        <path d="M12.992,7 L18.24,7 L18.24,22.36 C18.24,23.6400064 18.0000024,24.775995 17.52,25.768 C17.0399976,26.760005 16.3946707,27.5493304 15.584,28.136 C14.7733293,28.7226696 13.8826715,29.1599986 12.912,29.448 C11.9413285,29.7360014 10.9120054,29.88 9.824,29.88 C8.05332448,29.88 6.4746736,29.5493366 5.088,28.888 C3.7013264,28.2266634 2.65600352,27.2560064 1.952,25.976 L6.368,23.416 C7.13600384,24.6320061 8.2666592,25.24 9.76,25.24 C10.7200048,25.24 11.4986637,24.9946691 12.096,24.504 C12.6933363,24.0133309 12.992,23.2986714 12.992,22.36 L12.992,20.824 C11.9039946,22.1466733 10.4106762,22.808 8.512,22.808 C6.31465568,22.808 4.4960072,22.0186746 3.056,20.44 C1.6159928,18.8613254 0.896,16.9413446 0.896,14.68 C0.896,12.4186554 1.6159928,10.4986746 3.056,8.92 C4.4960072,7.34132544 6.31465568,6.552 8.512,6.552 C10.4106762,6.552 11.9039946,7.21332672 12.992,8.536 L12.992,7 Z M9.6,18.008 C10.6026717,18.008 11.4186635,17.6933365 12.048,17.064 C12.6773365,16.4346635 12.992,15.6400048 12.992,14.68 C12.992,13.7199952 12.6773365,12.9253365 12.048,12.296 C11.4186635,11.6666635 10.6026717,11.352 9.6,11.352 C8.59732832,11.352 7.78133648,11.6666635 7.152,12.296 C6.52266352,12.9253365 6.208,13.7199952 6.208,14.68 C6.208,15.6400048 6.52266352,16.4346635 7.152,17.064 C7.78133648,17.6933365 8.59732832,18.008 9.6,18.008 Z M29.466,23.448 C27.0979882,23.448 25.0820083,22.6320082 23.418,21 C21.7539917,19.3679918 20.922,17.3680118 20.922,15 C20.922,12.6319882 21.7539917,10.6320082 23.418,9 C25.0820083,7.36799184 27.0979882,6.552 29.466,6.552 C31.8553453,6.552 33.8766584,7.36799184 35.53,9 C37.1833416,10.6320082 38.01,12.6319882 38.01,15 C38.01,17.3680118 37.1833416,19.3679918 35.53,21 C33.8766584,22.6320082 31.8553453,23.448 29.466,23.448 Z M29.466,18.328 C30.4046714,18.328 31.177997,18.0186698 31.786,17.4 C32.394003,16.7813302 32.698,15.9813382 32.698,15 C32.698,14.0186618 32.394003,13.2186698 31.786,12.6 C31.177997,11.9813302 30.4046714,11.672 29.466,11.672 C28.5486621,11.672 27.786003,11.9813302 27.178,12.6 C26.569997,13.2186698 26.266,14.0186618 26.266,15 C26.266,15.9813382 26.569997,16.7813302 27.178,17.4 C27.786003,18.0186698 28.5486621,18.328 29.466,18.328 Z M57.454,5.048 C55.6193241,4.91999936 54.702,5.57065952 54.702,7 L57.454,7 L57.454,12.088 L54.702,12.088 L54.702,23 L49.39,23 L49.39,12.088 L47.374,12.088 L47.374,7 L49.39,7 C49.39,4.69598848 50.0673265,2.93600608 51.422,1.72 C52.7766734,0.50399392 54.78732,-0.02933408 57.454,0.12 L57.454,5.048 Z M66.856,23.448 C64.4879881,23.448 62.4720083,22.6320082 60.808,21 C59.1439917,19.3679918 58.312,17.3680118 58.312,15 C58.312,12.6319882 59.1439917,10.6320082 60.808,9 C62.4720083,7.36799184 64.4879881,6.552 66.856,6.552 C69.2453453,6.552 71.2666584,7.36799184 72.92,9 C74.5733416,10.6320082 75.4,12.6319882 75.4,15 C75.4,17.3680118 74.5733416,19.3679918 72.92,21 C71.2666584,22.6320082 69.2453453,23.448 66.856,23.448 Z M66.856,18.328 C67.7946713,18.328 68.5679969,18.0186698 69.176,17.4 C69.784003,16.7813302 70.088,15.9813382 70.088,15 C70.088,14.0186618 69.784003,13.2186698 69.176,12.6 C68.5679969,11.9813302 67.7946713,11.672 66.856,11.672 C65.9386621,11.672 65.176003,11.9813302 64.568,12.6 C63.9599969,13.2186698 63.656,14.0186618 63.656,15 C63.656,15.9813382 63.9599969,16.7813302 64.568,17.4 C65.176003,18.0186698 65.9386621,18.328 66.856,18.328 Z M83.458,9.976 C83.7566681,8.93066144 84.3539955,8.12000288 85.25,7.544 C86.1460045,6.96799712 87.1486611,6.68 88.258,6.68 L88.258,12.568 C87.0419939,12.375999 85.9380049,12.5999968 84.946,13.24 C83.953995,13.8800032 83.458,14.9253261 83.458,16.376 L83.458,23 L78.146,23 L78.146,7 L83.458,7 L83.458,9.976 Z M98.582,0.6 L104.31,0.6 L104.31,23 L98.582,23 L98.582,0.6 Z M123.6,0.6 L123.6,6.136 L118.064,6.136 L118.064,23 L112.336,23 L112.336,6.136 L106.8,6.136 L106.8,0.6 L123.6,0.6 Z" id="logo" fill="#FFFFFF"></path>
    </g>
</svg>