<?xml version="1.0" encoding="UTF-8"?>
<svg width="211px" height="31px" viewBox="0 0 211 31" version="1.1" xmlns="http://www.w3.org/2000/svg" xmlns:xlink="http://www.w3.org/1999/xlink">
    <g id="hero" stroke="none" stroke-width="1" fill="none" fill-rule="evenodd" transform="translate(-48.000000, -58.000000)">
        <g transform="translate(0.000000, -95.000000)" fill="#FFFFFF" id="logo">
            <path d="M66.944,164.68 L63.712,164.68 L63.328,166.92 L66.592,166.92 L65.984,170.76 L62.688,170.76 L61.92,175.4 L57.824,175.4 L58.592,170.76 L55.968,170.76 L55.2,175.4 L51.104,175.4 L51.872,170.76 L48.64,170.76 L49.248,166.92 L52.512,166.92 L52.896,164.68 L49.632,164.68 L50.24,160.84 L53.536,160.84 L54.304,156.2 L58.4,156.2 L57.632,160.84 L60.256,160.84 L61.024,156.2 L65.12,156.2 L64.352,160.84 L67.552,160.84 L66.944,164.68 Z M59.232,166.92 L59.616,164.68 L56.992,164.68 L56.608,166.92 L59.232,166.92 Z M70.138,177 L70.138,153.64 L75.45,153.64 L75.45,177 L70.138,177 Z M90.196,161 L95.508,161 L95.508,177 L90.196,177 L90.196,175.528 C89.1079946,176.808006 87.593343,177.448 85.652,177.448 C83.518656,177.448 81.7320072,176.642675 80.292,175.032 C78.8519928,173.421325 78.132,171.410679 78.132,169 C78.132,166.589321 78.8519928,164.578675 80.292,162.968 C81.7320072,161.357325 83.518656,160.552 85.652,160.552 C87.593343,160.552 89.1079946,161.191994 90.196,162.472 L90.196,161 Z M86.836,172.488 C87.8386717,172.488 88.6493302,172.168003 89.268,171.528 C89.8866698,170.887997 90.196,170.045339 90.196,169 C90.196,167.954661 89.8866698,167.112003 89.268,166.472 C88.6493302,165.831997 87.8386717,165.512 86.836,165.512 C85.8333283,165.512 85.0226698,165.831997 84.404,166.472 C83.7853302,167.112003 83.476,167.954661 83.476,169 C83.476,170.045339 83.7853302,170.887997 84.404,171.528 C85.0226698,172.168003 85.8333283,172.488 86.836,172.488 Z M98.99,177 L98.99,153.64 L104.302,153.64 L104.302,177 L98.99,177 Z M119.048,161 L124.36,161 L124.36,177 L119.048,177 L119.048,175.528 C117.959995,176.808006 116.445343,177.448 114.504,177.448 C112.370656,177.448 110.584007,176.642675 109.144,175.032 C107.703993,173.421325 106.984,171.410679 106.984,169 C106.984,166.589321 107.703993,164.578675 109.144,162.968 C110.584007,161.357325 112.370656,160.552 114.504,160.552 C116.445343,160.552 117.959995,161.191994 119.048,162.472 L119.048,161 Z M115.688,172.488 C116.690672,172.488 117.50133,172.168003 118.12,171.528 C118.73867,170.887997 119.048,170.045339 119.048,169 C119.048,167.954661 118.73867,167.112003 118.12,166.472 C117.50133,165.831997 116.690672,165.512 115.688,165.512 C114.685328,165.512 113.87467,165.831997 113.256,166.472 C112.63733,167.112003 112.328,167.954661 112.328,169 C112.328,170.045339 112.63733,170.887997 113.256,171.528 C113.87467,172.168003 114.685328,172.488 115.688,172.488 Z M134.69,172.072 L140.674,172.072 L140.674,177 L127.586,177 L127.586,173.352 L133.25,165.928 L127.906,165.928 L127.906,161 L140.354,161 L140.354,164.648 L134.69,172.072 Z M154.076,154.6 L159.388,154.6 L159.388,177 L154.076,177 L154.076,175.528 C152.987995,176.808006 151.473343,177.448 149.532,177.448 C147.398656,177.448 145.612007,176.642675 144.172,175.032 C142.731993,173.421325 142.012,171.410679 142.012,169 C142.012,166.589321 142.731993,164.578675 144.172,162.968 C145.612007,161.357325 147.398656,160.552 149.532,160.552 C151.473343,160.552 152.987995,161.191994 154.076,162.472 L154.076,154.6 Z M150.716,172.488 C151.718672,172.488 152.52933,172.168003 153.148,171.528 C153.76667,170.887997 154.076,170.045339 154.076,169 C154.076,167.954661 153.76667,167.112003 153.148,166.472 C152.52933,165.831997 151.718672,165.512 150.716,165.512 C149.713328,165.512 148.90267,165.831997 148.284,166.472 C147.66533,167.112003 147.356,167.954661 147.356,169 C147.356,170.045339 147.66533,170.887997 148.284,171.528 C148.90267,172.168003 149.713328,172.488 150.716,172.488 Z M165.526,159.688 C164.693996,159.688 163.974003,159.384003 163.366,158.776 C162.757997,158.167997 162.454,157.448004 162.454,156.616 C162.454,155.783996 162.757997,155.069336 163.366,154.472 C163.974003,153.874664 164.693996,153.576 165.526,153.576 C166.358004,153.576 167.077997,153.874664 167.686,154.472 C168.294003,155.069336 168.598,155.783996 168.598,156.616 C168.598,157.448004 168.294003,158.167997 167.686,158.776 C167.077997,159.384003 166.358004,159.688 165.526,159.688 Z M162.87,177 L162.87,161 L168.182,161 L168.182,177 L162.87,177 Z M183.088,161 L188.336,161 L188.336,176.36 C188.336,177.640006 188.096002,178.775995 187.616,179.768 C187.135998,180.760005 186.490671,181.54933 185.68,182.136 C184.869329,182.72267 183.978671,183.159999 183.008,183.448 C182.037328,183.736001 181.008005,183.88 179.92,183.88 C178.149324,183.88 176.570674,183.549337 175.184,182.888 C173.797326,182.226663 172.752003,181.256006 172.048,179.976 L176.464,177.416 C177.232004,178.632006 178.362659,179.24 179.856,179.24 C180.816005,179.24 181.594664,178.994669 182.192,178.504 C182.789336,178.013331 183.088,177.298671 183.088,176.36 L183.088,174.824 C181.999995,176.146673 180.506676,176.808 178.608,176.808 C176.410656,176.808 174.592007,176.018675 173.152,174.44 C171.711993,172.861325 170.992,170.941345 170.992,168.68 C170.992,166.418655 171.711993,164.498675 173.152,162.92 C174.592007,161.341325 176.410656,160.552 178.608,160.552 C180.506676,160.552 181.999995,161.213327 183.088,162.536 L183.088,161 Z M179.696,172.008 C180.698672,172.008 181.514663,171.693336 182.144,171.064 C182.773336,170.434664 183.088,169.640005 183.088,168.68 C183.088,167.719995 182.773336,166.925336 182.144,166.296 C181.514663,165.666664 180.698672,165.352 179.696,165.352 C178.693328,165.352 177.877336,165.666664 177.248,166.296 C176.618663,166.925336 176.304,167.719995 176.304,168.68 C176.304,169.640005 176.618663,170.434664 177.248,171.064 C177.877336,171.693336 178.693328,172.008 179.696,172.008 Z M194.474,159.688 C193.641996,159.688 192.922003,159.384003 192.314,158.776 C191.705997,158.167997 191.402,157.448004 191.402,156.616 C191.402,155.783996 191.705997,155.069336 192.314,154.472 C192.922003,153.874664 193.641996,153.576 194.474,153.576 C195.306004,153.576 196.025997,153.874664 196.634,154.472 C197.242003,155.069336 197.546,155.783996 197.546,156.616 C197.546,157.448004 197.242003,158.167997 196.634,158.776 C196.025997,159.384003 195.306004,159.688 194.474,159.688 Z M191.818,177 L191.818,161 L197.13,161 L197.13,177 L191.818,177 Z M210.532,166.088 L207.204,166.088 L207.204,170.728 C207.204,171.432004 207.459997,171.869332 207.972,172.04 C208.484003,172.210668 209.337327,172.264 210.532,172.2 L210.532,177 C207.353317,177.384002 205.118673,177.090672 203.828,176.12 C202.537327,175.149328 201.892,173.394679 201.892,170.856 L201.892,166.088 L199.492,166.088 L199.492,161 L201.892,161 L201.892,158.12 L207.204,156.52 L207.204,161 L210.532,161 L210.532,166.088 Z M224.414,161 L229.726,161 L229.726,177 L224.414,177 L224.414,175.528 C223.325995,176.808006 221.811343,177.448 219.87,177.448 C217.736656,177.448 215.950007,176.642675 214.51,175.032 C213.069993,173.421325 212.35,171.410679 212.35,169 C212.35,166.589321 213.069993,164.578675 214.51,162.968 C215.950007,161.357325 217.736656,160.552 219.87,160.552 C221.811343,160.552 223.325995,161.191994 224.414,162.472 L224.414,161 Z M221.054,172.488 C222.056672,172.488 222.86733,172.168003 223.486,171.528 C224.10467,170.887997 224.414,170.045339 224.414,169 C224.414,167.954661 224.10467,167.112003 223.486,166.472 C222.86733,165.831997 222.056672,165.512 221.054,165.512 C220.051328,165.512 219.24067,165.831997 218.622,166.472 C218.00333,167.112003 217.694,167.954661 217.694,169 C217.694,170.045339 218.00333,170.887997 218.622,171.528 C219.24067,172.168003 220.051328,172.488 221.054,172.488 Z M233.208,177 L233.208,153.64 L238.52,153.64 L238.52,177 L233.208,177 Z M253.266,161 L258.578,161 L258.578,177 L253.266,177 L253.266,175.528 C252.177995,176.808006 250.663343,177.448 248.722,177.448 C246.588656,177.448 244.802007,176.642675 243.362,175.032 C241.921993,173.421325 241.202,171.410679 241.202,169 C241.202,166.589321 241.921993,164.578675 243.362,162.968 C244.802007,161.357325 246.588656,160.552 248.722,160.552 C250.663343,160.552 252.177995,161.191994 253.266,162.472 L253.266,161 Z M249.906,172.488 C250.908672,172.488 251.71933,172.168003 252.338,171.528 C252.95667,170.887997 253.266,170.045339 253.266,169 C253.266,167.954661 252.95667,167.112003 252.338,166.472 C251.71933,165.831997 250.908672,165.512 249.906,165.512 C248.903328,165.512 248.09267,165.831997 247.474,166.472 C246.85533,167.112003 246.546,167.954661 246.546,169 C246.546,170.045339 246.85533,170.887997 247.474,171.528 C248.09267,172.168003 248.903328,172.488 249.906,172.488 Z"></path>
        </g>
    </g>
</svg>