<?xml version="1.0" encoding="UTF-8"?>
<svg width="106px" height="24px" viewBox="0 0 106 24" version="1.1" xmlns="http://www.w3.org/2000/svg" xmlns:xlink="http://www.w3.org/1999/xlink">
    <a xlink:href="www.dareit.org" target="__blank">
    <g stroke="none" stroke-width="1" fill="none" fill-rule="evenodd" transform="translate(-48.000000, -59.000000)">
        <g transform="translate(0.000000, -75.000000)" fill="#FFFFFF">
            <g transform="translate(0.000000, 75.000000)">
                <path d="M60.832,59.6 L66.144,59.6 L66.144,82 L60.832,82 L60.832,80.528 C59.7439946,81.8080064 58.229343,82.448 56.288,82.448 C54.154656,82.448 52.3680072,81.6426747 50.928,80.032 C49.4879928,78.4213253 48.768,76.4106787 48.768,74 C48.768,71.5893213 49.4879928,69.5786747 50.928,67.968 C52.3680072,66.3573253 54.154656,65.552 56.288,65.552 C58.229343,65.552 59.7439946,66.1919936 60.832,67.472 L60.832,59.6 Z M57.472,77.488 C58.4746717,77.488 59.2853302,77.1680032 59.904,76.528 C60.5226698,75.8879968 60.832,75.0453386 60.832,74 C60.832,72.9546614 60.5226698,72.1120032 59.904,71.472 C59.2853302,70.8319968 58.4746717,70.512 57.472,70.512 C56.4693283,70.512 55.6586698,70.8319968 55.04,71.472 C54.4213302,72.1120032 54.112,72.9546614 54.112,74 C54.112,75.0453386 54.4213302,75.8879968 55.04,76.528 C55.6586698,77.1680032 56.4693283,77.488 57.472,77.488 Z M80.89,66 L86.202,66 L86.202,82 L80.89,82 L80.89,80.528 C79.8019946,81.8080064 78.287343,82.448 76.346,82.448 C74.212656,82.448 72.4260072,81.6426747 70.986,80.032 C69.5459928,78.4213253 68.826,76.4106787 68.826,74 C68.826,71.5893213 69.5459928,69.5786747 70.986,67.968 C72.4260072,66.3573253 74.212656,65.552 76.346,65.552 C78.287343,65.552 79.8019946,66.1919936 80.89,67.472 L80.89,66 Z M77.53,77.488 C78.5326717,77.488 79.3433302,77.1680032 79.962,76.528 C80.5806698,75.8879968 80.89,75.0453386 80.89,74 C80.89,72.9546614 80.5806698,72.1120032 79.962,71.472 C79.3433302,70.8319968 78.5326717,70.512 77.53,70.512 C76.5273283,70.512 75.7166698,70.8319968 75.098,71.472 C74.4793302,72.1120032 74.17,72.9546614 74.17,74 C74.17,75.0453386 74.4793302,75.8879968 75.098,76.528 C75.7166698,77.1680032 76.5273283,77.488 77.53,77.488 Z M94.996,68.976 C95.2946682,67.9306614 95.8919955,67.1200029 96.788,66.544 C97.6840045,65.9679971 98.6866611,65.68 99.796,65.68 L99.796,71.568 C98.5799939,71.375999 97.476005,71.5999968 96.484,72.24 C95.491995,72.8800032 94.996,73.9253261 94.996,75.376 L94.996,82 L89.684,82 L89.684,66 L94.996,66 L94.996,68.976 Z M106.542,75.952 C107.075336,77.2533398 108.269991,77.904 110.126,77.904 C111.278006,77.904 112.248663,77.5306704 113.038,76.784 L116.878,79.472 C115.299325,81.4560099 113.006015,82.448 109.998,82.448 C107.288653,82.448 105.118008,81.6533413 103.486,80.064 C101.853992,78.4746587 101.038,76.4640122 101.038,74.032 C101.038,71.6213213 101.837992,69.6053414 103.438,67.984 C105.038008,66.3626586 107.075321,65.552 109.55,65.552 C111.939345,65.552 113.912659,66.351992 115.47,67.952 C117.027341,69.552008 117.806,71.5573213 117.806,73.968 C117.806,74.6720035 117.731334,75.3333302 117.582,75.952 L106.542,75.952 Z M106.478,72.272 L112.622,72.272 C112.195331,70.7786592 111.192675,70.032 109.614,70.032 C107.971325,70.032 106.926002,70.7786592 106.478,72.272 Z M128.386,59.6 L134.114,59.6 L134.114,82 L128.386,82 L128.386,59.6 Z M153.404,59.6 L153.404,65.136 L147.868,65.136 L147.868,82 L142.14,82 L142.14,65.136 L136.604,65.136 L136.604,59.6 L153.404,59.6 Z"></path>
            </g>
        </g>
    </g>
</svg>
