<?xml version="1.0" encoding="UTF-8"?>
<svg width="43px" height="59px" viewBox="0 0 43 59" version="1.1" xmlns="http://www.w3.org/2000/svg" xmlns:xlink="http://www.w3.org/1999/xlink">
    <!-- Generator: Sketch 48.2 (47327) - http://www.bohemiancoding.com/sketch -->
    <title>Group</title>
    <desc>Created with Sketch.</desc>
    <defs></defs>
    <g id="Pomagaj" stroke="none" stroke-width="1" fill="none" fill-rule="evenodd" transform="translate(-1264.000000, -41.000000)">
        <g id="Group" transform="translate(1285.500000, 71.500000) rotate(-45.000000) translate(-1285.500000, -71.500000) translate(1255.000000, 56.000000)" fill="#FFE222">
            <path d="M24.6123145,30.1307497 C34.7833604,31.097969 44.3381412,30.7865852 47.5169793,28.76853 C48.5125749,28.1364856 49.3712166,26.3189757 49.3712166,25.2290272 C49.3712166,20.6589816 46.539066,20.4990201 32.3783131,20.4990201 C25.905464,20.4990201 16.1979285,20.4254188 12.5532589,20.4990201 C6.93545197,20.6124676 0.755365092,20.3142353 0.755365092,22.9838446 C0.755365092,30.1307497 10.2875385,28.76853 24.6123145,30.1307497 Z" id="Oval-Copy-17"></path>
            <path d="M34.5622919,10.4238714 C43.4777091,10.4238714 51.1483498,10.7440235 58.6878236,10.7440235 C59.8206838,10.7440235 60.0516472,5.19345427 60.0516472,4.13813719 C60.0516472,-0.286702583 52.4778938,1.32300129 41.1691501,1.32300129 C35.9999482,1.32300129 32.9414754,1.25173847 30.0308509,1.32300129 C27.1202264,1.3942641 16.18038,-0.794438598 15.3036679,1.78098685 C15.1291248,2.29372365 14.7372377,4.3078494 14.7372377,4.92385397 C14.7372377,10.6413686 22.8546121,10.4238714 34.5622919,10.4238714 Z" id="Oval-Copy-19"></path>
        </g>
    </g>
</svg>