<?xml version="1.0" encoding="UTF-8"?>
<svg width="42px" height="41px" viewBox="0 0 42 41" version="1.1" xmlns="http://www.w3.org/2000/svg" xmlns:xlink="http://www.w3.org/1999/xlink">
    <g stroke="none" stroke-width="1" fill="none" fill-rule="evenodd">
        <g id="Group-8" transform="translate(-2.000000, -2.000000)" fill="#FFE222">
            <path d="M22.7724023,28.0598512 C35.0220517,28.0598512 44.4167858,28.7299125 47.9048013,26.6680835 C48.9972298,26.0223293 48.9497062,23.1641442 48.9497062,22.0505536 C48.9497062,17.3813787 44.4522745,19.4177993 28.9142303,19.4177993 C21.8118245,19.4177993 12.4656527,17.3405602 8.46649836,17.415758 C2.30229697,17.5316663 -2.20031238,18.0402841 -3.40490165,20.7579219 C-3.64472115,21.2989715 -3.40490165,22.7406565 -3.40490165,23.3906763 C-3.40490165,29.4239062 6.686226,28.0598512 22.7724023,28.0598512 Z" id="Oval-Copy-22" transform="translate(22.719261, 22.802936) rotate(-45.000000) translate(-22.719261, -22.802936) "></path>
            <path d="M23.0765981,27.9008276 C35.3262476,27.9008276 44.7209816,28.570889 48.2089972,26.5090599 C49.3014256,25.8633057 49.2539021,23.0051207 49.2539021,21.8915301 C49.2539021,17.2223552 44.7564703,19.2587757 29.2184261,19.2587757 C22.1160203,19.2587757 12.7698486,17.1815366 8.77069422,17.2567345 C2.60649283,17.3726427 -1.89611653,17.8812606 -3.1007058,20.5988984 C-3.3405253,21.139948 -3.1007058,22.581633 -3.1007058,23.2316527 C-3.1007058,29.2648826 6.99042185,27.9008276 23.0765981,27.9008276 Z" id="Oval-Copy-23" transform="translate(23.023457, 22.643912) scale(1, -1) rotate(-45.000000) translate(-23.023457, -22.643912) "></path>
        </g>
    </g>
</svg>
